<svg xmlns="http://www.w3.org/2000/svg" viewBox="0 0 24 24" fill="url(#grad)">
  <defs>
    <linearGradient id="grad" x1="0%" y1="0%" x2="100%" y2="100%">
      <stop offset="0%" stop-color="#00a8ff"></stop>
      <stop offset="100%" stop-color="#6b21a8"></stop>
    </linearGradient>
  </defs>
  <path d="M23.44 4.83c-.81.36-1.67.6-2.58.71a4.48 4.48 0 0 0 1.97-2.48 8.84 8.84 0 0 1-2.83 1.09 4.43 4.43 0 0 0-7.73 3.03c0 .35.04.7.11 1.03A12.56 12.56 0 0 1 1.64 3.16a4.43 4.43 0 0 0 1.37 5.9 4.41 4.41 0 0 1-2-.55v.05a4.44 4.44 0 0 0 3.55 4.34 4.41 4.41 0 0 1-2 .08 4.44 4.44 0 0 0 4.14 3.07A8.9 8.9 0 0 1 0 19.54a12.55 12.55 0 0 0 6.8 2 12.53 12.53 0 0 0 12.63-13.18c0-.2-.01-.39-.02-.58a9.1 9.1 0 0 0 2.24-2.35Z"></path>
</svg>
