<svg xmlns="http://www.w3.org/2000/svg" viewBox="0 0 24 24">
  <path fill="#ffffff" d="M16.365 1.43c0 1.02-.37 2.01-1.05 2.8-.72.84-1.9 1.72-3.13 1.55-.06-.89.24-1.83.86-2.64.7-.92 1.88-1.7 2.98-1.71.1 0 .24.01.34.01z"></path>
  <path fill="#ffffff" d="M12.25 4.29c1.2 0 2.84.81 3.96 1.81.86.79 1.57 1.6 2.09 2.41.58.9.92 1.84.92 2.94 0 2.94-1.56 5.69-3.83 7.35-1.33.99-2.85 1.64-4.19 1.64-1.3 0-2.14-.46-3.54-.46-1.44 0-2.29.47-3.56.47-1.6 0-3.07-.97-4.46-2.76C-2.32 17.77-1.2 9.13 3.05 6c1.1-.78 2.32-1.4 3.66-1.4 1.25 0 2.23.47 3.54.47 1.3 0 2.12-.47 3.46-.47z"></path>
</svg>
