<svg xmlns="http://www.w3.org/2000/svg" viewBox="0 0 48 48">
  <path fill="#EA4335" d="M24 9.5c3.5 0 6.2 1.3 8 2.5l5.9-5.9C34.8 3 29.9 1.5 24 1.5 14.8 1.5 6.9 6.8 3 14.6l6.9 5.4C11.7 14 17.4 9.5 24 9.5z"></path>
  <path fill="#4285F4" d="M46.5 24.5c0-1.7-.2-3.3-.6-4.9H24v9.3h12.6c-.5 2.8-2 5.1-4.3 6.7l6.9 5.4c4-3.7 6.3-8.8 6.3-16.5z"></path>
  <path fill="#FBBC05" d="M9.9 29.9A14.9 14.9 0 0 1 9.5 24c0-1.7.3-3.3.8-4.9L3.5 13.7A24.1 24.1 0 0 0 1.5 24c0 3.8.9 7.4 2.5 10.6l6-4.7z"></path>
  <path fill="#34A853" d="M24 46.5c6.2 0 11.4-2 15.2-5.5l-7.4-5.9c-2 1.4-4.6 2.3-7.8 2.3-6.6 0-12.3-4.5-14.3-10.5l-6.9 5.4C6.9 41.7 14.8 46.5 24 46.5z"></path>
</svg>
